<svg xmlns="http://www.w3.org/2000/svg" xmlns:xlink="http://www.w3.org/1999/xlink" contentStyleType="text/css" data-diagram-type="DESCRIPTION" height="313px" preserveAspectRatio="none" style="width:291px;height:313px;background:#FFFFFF;" version="1.1" viewBox="0 0 291 313" width="291px" zoomAndPan="magnify"><defs/><g><!--cluster Kubernetes Cluster--><g class="cluster" data-entity="Kubernetes Cluster" data-source-line="2" data-uid="ent0003" id="cluster_Kubernetes Cluster"><path d="M8.5,106.3 L162.0576,106.3 A3.75,3.75 0 0 1 164.5576,108.8 L171.5576,128.5969 L281.5,128.5969 A2.5,2.5 0 0 1 284,131.0969 L284,304.39 A2.5,2.5 0 0 1 281.5,306.89 L8.5,306.89 A2.5,2.5 0 0 1 6,304.39 L6,108.8 A2.5,2.5 0 0 1 8.5,106.3" fill="none" style="stroke:#000000;stroke-width:1.5;"/><line style="stroke:#000000;stroke-width:1.5;" x1="6" x2="171.5576" y1="128.5969" y2="128.5969"/><text fill="#000000" font-family="sans-serif" font-size="14" font-weight="bold" lengthAdjust="spacing" textLength="152.5576" x="10" y="121.2951">Kubernetes Cluster</text></g><!--entity svc--><g class="entity" data-entity="svc" data-source-line="3" data-uid="ent0004" id="entity_svc"><rect fill="#F1F1F1" height="36.2969" rx="2.5" ry="2.5" style="stroke:#181818;stroke-width:0.5;" width="245.8389" x="22.08" y="141.3"/><text fill="#000000" font-family="sans-serif" font-size="14" lengthAdjust="spacing" textLength="225.8389" x="32.08" y="164.2951">Service: LoadBalancer/NodePort</text></g><!--entity pod--><g class="entity" data-entity="pod" data-source-line="4" data-uid="ent0005" id="entity_pod"><rect fill="#F1F1F1" height="36.2969" rx="2.5" ry="2.5" style="stroke:#181818;stroke-width:0.5;" width="93.8691" x="98.07" y="254.59"/><text fill="#000000" font-family="sans-serif" font-size="14" lengthAdjust="spacing" textLength="73.8691" x="108.07" y="277.5851">Pod: nginx</text></g><!--entity internet--><g class="entity" data-entity="internet" data-source-line="1" data-uid="ent0002" id="entity_internet"><rect fill="#F1F1F1" height="36.2969" rx="2.5" ry="2.5" style="stroke:#181818;stroke-width:0.5;" width="75.8359" x="107.08" y="7"/><text fill="#000000" font-family="sans-serif" font-size="14" lengthAdjust="spacing" textLength="55.8359" x="117.08" y="29.9951">Internet</text></g><!--link internet to svc--><g class="link" data-entity-1="internet" data-entity-2="svc" data-source-line="7" data-uid="lnk6" id="link_internet_svc"><path d="M145,43.72 C145,69.02 145,109.46 145,134.8" fill="none" id="internet-to-svc" style="stroke:#181818;stroke-width:1;"/><polygon fill="#181818" points="145,140.8,149,131.8,145,135.8,141,131.8,145,140.8" style="stroke:#181818;stroke-width:1;"/><text fill="#000000" font-family="sans-serif" font-size="13" lengthAdjust="spacing" textLength="87.3311" x="146" y="86.3669">HTTP request</text></g><!--link svc to pod--><g class="link" data-entity-1="svc" data-entity-2="pod" data-source-line="8" data-uid="lnk7" id="link_svc_pod"><path d="M145,177.83 C145,198.62 145,227.21 145,248.11" fill="none" id="svc-to-pod" style="stroke:#181818;stroke-width:1;"/><polygon fill="#181818" points="145,254.11,149,245.11,145,249.11,141,245.11,145,254.11" style="stroke:#181818;stroke-width:1;"/><text fill="#000000" font-family="sans-serif" font-size="13" lengthAdjust="spacing" textLength="110.6777" x="146" y="220.6569">forwards request</text></g><!--SRC=[NOwn2W8n44JxVCMI_h1FOQ6DeaZ0-u6Ox1s1aDLDSWhYlvkS7eBRxRoPOHXjDd4C278VCtB4BC4ayDz731GSCiX3kSm29jY6aYgLy1HGZtyLP-J9MrHm9ECs9fXeaLSdSgY9FyLfilyfJKv177ryp8uhEV4IOba0NRTkAL2mwtjTWxU2AOicDLJj5Gt4TyCkBVWD]--></g></svg>