<svg xmlns="http://www.w3.org/2000/svg" xmlns:xlink="http://www.w3.org/1999/xlink" contentStyleType="text/css" data-diagram-type="DESCRIPTION" height="645px" preserveAspectRatio="none" style="width:845px;height:645px;background:#FFFFFF;" version="1.1" viewBox="0 0 845 645" width="845px" zoomAndPan="magnify"><title>Static Website Deployment on GCP via GitHub Actions</title><defs/><g><g class="title" data-source-line="1"><text fill="#000000" font-family="sans-serif" font-size="14" font-weight="bold" lengthAdjust="spacing" textLength="428.0459" x="201.6079" y="22.9951">Static Website Deployment on GCP via GitHub Actions</text></g><!--cluster Developer Machine--><g class="cluster" data-entity="Developer Machine" data-source-line="6" data-uid="ent0003" id="cluster_Developer Machine"><polygon fill="none" points="67.79,56.7969,77.79,46.7969,294.79,46.7969,294.79,132.0969,284.79,142.0969,67.79,142.0969,67.79,56.7969" style="stroke:#181818;stroke-width:1;"/><line style="stroke:#181818;stroke-width:1;" x1="284.79" x2="294.79" y1="56.7969" y2="46.7969"/><line style="stroke:#181818;stroke-width:1;" x1="67.79" x2="284.79" y1="56.7969" y2="56.7969"/><line style="stroke:#181818;stroke-width:1;" x1="284.79" x2="284.79" y1="56.7969" y2="142.0969"/><text fill="#000000" font-family="sans-serif" font-size="14" font-weight="bold" lengthAdjust="spacing" textLength="151.3545" x="101.6128" y="72.792">Developer Machine</text></g><!--cluster GitHub--><g class="cluster" data-entity="GitHub" data-source-line="11" data-uid="ent0005" id="cluster_GitHub"><polygon fill="none" points="40.79,202.5969,50.79,192.5969,286.79,192.5969,286.79,284.8969,276.79,294.8969,40.79,294.8969,40.79,202.5969" style="stroke:#181818;stroke-width:1;"/><line style="stroke:#181818;stroke-width:1;" x1="276.79" x2="286.79" y1="202.5969" y2="192.5969"/><line style="stroke:#181818;stroke-width:1;" x1="40.79" x2="276.79" y1="202.5969" y2="202.5969"/><line style="stroke:#181818;stroke-width:1;" x1="276.79" x2="276.79" y1="202.5969" y2="294.8969"/><text fill="#000000" font-family="sans-serif" font-size="14" font-weight="bold" lengthAdjust="spacing" textLength="54.6875" x="132.4463" y="218.592">GitHub</text></g><!--cluster GCP Project--><g class="cluster" data-entity="GCP Project" data-source-line="16" data-uid="ent0007" id="cluster_GCP Project"><polygon fill="none" points="48.79,353.8969,58.79,343.8969,509.79,343.8969,509.79,618.9869,499.79,628.9869,48.79,628.9869,48.79,353.8969" style="stroke:#181818;stroke-width:1;"/><line style="stroke:#181818;stroke-width:1;" x1="499.79" x2="509.79" y1="353.8969" y2="343.8969"/><line style="stroke:#181818;stroke-width:1;" x1="48.79" x2="499.79" y1="353.8969" y2="353.8969"/><line style="stroke:#181818;stroke-width:1;" x1="499.79" x2="499.79" y1="353.8969" y2="628.9869"/><text fill="#000000" font-family="sans-serif" font-size="14" font-weight="bold" lengthAdjust="spacing" textLength="92.9688" x="228.8056" y="369.892">GCP Project</text></g><!--cluster GCP Storage--><g class="cluster" data-entity="GCP Storage" data-source-line="20" data-uid="ent0010" id="cluster_GCP Storage"><polygon fill="none" points="269.79,401.8969,279.79,391.8969,485.79,391.8969,485.79,477.1869,475.79,487.1869,269.79,487.1869,269.79,401.8969" style="stroke:#181818;stroke-width:1;"/><line style="stroke:#181818;stroke-width:1;" x1="475.79" x2="485.79" y1="401.8969" y2="391.8969"/><line style="stroke:#181818;stroke-width:1;" x1="269.79" x2="475.79" y1="401.8969" y2="401.8969"/><line style="stroke:#181818;stroke-width:1;" x1="475.79" x2="475.79" y1="401.8969" y2="487.1869"/><text fill="#000000" font-family="sans-serif" font-size="14" font-weight="bold" lengthAdjust="spacing" textLength="99.1621" x="324.2089" y="417.892">GCP Storage</text></g><!--cluster Network Edge--><g class="cluster" data-entity="Network Edge" data-source-line="26" data-uid="ent0012" id="cluster_Network Edge"><polygon fill="none" points="328.79,53.2969,338.79,43.2969,580.79,43.2969,580.79,284.8969,570.79,294.8969,328.79,294.8969,328.79,53.2969" style="stroke:#181818;stroke-width:1;"/><line style="stroke:#181818;stroke-width:1;" x1="570.79" x2="580.79" y1="53.2969" y2="43.2969"/><line style="stroke:#181818;stroke-width:1;" x1="328.79" x2="570.79" y1="53.2969" y2="53.2969"/><line style="stroke:#181818;stroke-width:1;" x1="570.79" x2="570.79" y1="53.2969" y2="294.8969"/><text fill="#000000" font-family="sans-serif" font-size="14" font-weight="bold" lengthAdjust="spacing" textLength="110.6465" x="395.4668" y="69.292">Network Edge</text></g><!--entity GitHubRepo--><g class="entity" data-entity="GitHubRepo" data-source-line="7" data-uid="ent0004" id="entity_GitHubRepo"><rect fill="#F1F1F1" height="39.2969" rx="2.5" ry="2.5" style="stroke:#181818;stroke-width:0.5;" width="158.0371" x="84.77" y="86.7969"/><polygon fill="#F1F1F1" points="225.8071,91.7969,225.8071,105.7969,237.8071,105.7969,237.8071,97.7969,231.8071,91.7969,225.8071,91.7969" style="stroke:#181818;stroke-width:0.5;"/><line style="stroke:#181818;stroke-width:0.5;" x1="231.8071" x2="231.8071" y1="91.7969" y2="97.7969"/><line style="stroke:#181818;stroke-width:0.5;" x1="237.8071" x2="231.8071" y1="97.7969" y2="97.7969"/><text fill="#000000" font-family="sans-serif" font-size="14" lengthAdjust="spacing" textLength="128.0371" x="94.77" y="112.792">GitHub Repository</text></g><!--entity GitHubActions--><g class="entity" data-entity="GitHubActions" data-source-line="12" data-uid="ent0006" id="entity_GitHubActions"><rect fill="#F1F1F1" height="46.2969" rx="2.5" ry="2.5" style="stroke:#181818;stroke-width:0.5;" width="213.9063" x="56.84" y="232.5969"/><rect fill="#F1F1F1" height="10" style="stroke:#181818;stroke-width:0.5;" width="15" x="250.7463" y="237.5969"/><rect fill="#F1F1F1" height="2" style="stroke:#181818;stroke-width:0.5;" width="4" x="248.7463" y="239.5969"/><rect fill="#F1F1F1" height="2" style="stroke:#181818;stroke-width:0.5;" width="4" x="248.7463" y="243.5969"/><text fill="#000000" font-family="sans-serif" font-size="14" lengthAdjust="spacing" textLength="173.9063" x="71.84" y="265.592">GitHub Actions Workflow</text></g><!--entity GCPServiceAccount--><g class="entity" data-entity="GCPServiceAccount" data-source-line="17" data-uid="ent0008" id="entity_GCPServiceAccount"><rect fill="#F1F1F1" height="46.2969" rx="2.5" ry="2.5" style="stroke:#181818;stroke-width:0.5;" width="186.4805" x="64.55" y="428.3969"/><rect fill="#F1F1F1" height="10" style="stroke:#181818;stroke-width:0.5;" width="15" x="231.0305" y="433.3969"/><rect fill="#F1F1F1" height="2" style="stroke:#181818;stroke-width:0.5;" width="4" x="229.0305" y="435.3969"/><rect fill="#F1F1F1" height="2" style="stroke:#181818;stroke-width:0.5;" width="4" x="229.0305" y="439.3969"/><text fill="#000000" font-family="sans-serif" font-size="14" lengthAdjust="spacing" textLength="146.4805" x="79.55" y="461.392">GCP Service Account</text></g><!--entity GCPIAM--><g class="entity" data-entity="GCPIAM" data-source-line="18" data-uid="ent0009" id="entity_GCPIAM"><rect fill="#F1F1F1" height="46.2969" rx="2.5" ry="2.5" style="stroke:#181818;stroke-width:0.5;" width="141.8418" x="130.87" y="566.6869"/><rect fill="#F1F1F1" height="10" style="stroke:#181818;stroke-width:0.5;" width="15" x="252.7118" y="571.6869"/><rect fill="#F1F1F1" height="2" style="stroke:#181818;stroke-width:0.5;" width="4" x="250.7118" y="573.6869"/><rect fill="#F1F1F1" height="2" style="stroke:#181818;stroke-width:0.5;" width="4" x="250.7118" y="577.6869"/><text fill="#000000" font-family="sans-serif" font-size="14" lengthAdjust="spacing" textLength="101.8418" x="145.87" y="599.682">GCP IAM Roles</text></g><!--entity GCPBucket--><g class="entity" data-entity="GCPBucket" data-source-line="21" data-uid="ent0011" id="entity_GCPBucket"><rect fill="#F1F1F1" height="39.2969" rx="2.5" ry="2.5" style="stroke:#181818;stroke-width:0.5;" width="183.9453" x="285.82" y="431.8969"/><polygon fill="#F1F1F1" points="452.7653,436.8969,452.7653,450.8969,464.7653,450.8969,464.7653,442.8969,458.7653,436.8969,452.7653,436.8969" style="stroke:#181818;stroke-width:0.5;"/><line style="stroke:#181818;stroke-width:0.5;" x1="458.7653" x2="458.7653" y1="436.8969" y2="442.8969"/><line style="stroke:#181818;stroke-width:0.5;" x1="464.7653" x2="458.7653" y1="442.8969" y2="442.8969"/><text fill="#000000" font-family="sans-serif" font-size="14" lengthAdjust="spacing" textLength="153.9453" x="295.82" y="457.892">Static Website Bucket</text></g><!--entity Registrar--><g class="entity" data-entity="Registrar" data-source-line="27" data-uid="ent0013" id="entity_Registrar"><rect fill="#F1F1F1" height="46.2969" rx="2.5" ry="2.5" style="stroke:#181818;stroke-width:0.5;" width="220.5029" x="344.54" y="83.2969"/><rect fill="#F1F1F1" height="10" style="stroke:#181818;stroke-width:0.5;" width="15" x="545.0429" y="88.2969"/><rect fill="#F1F1F1" height="2" style="stroke:#181818;stroke-width:0.5;" width="4" x="543.0429" y="90.2969"/><rect fill="#F1F1F1" height="2" style="stroke:#181818;stroke-width:0.5;" width="4" x="543.0429" y="94.2969"/><text fill="#000000" font-family="sans-serif" font-size="14" lengthAdjust="spacing" textLength="180.5029" x="359.54" y="116.292">Domain Registrar (nic.ua)</text></g><!--entity Cloudflare--><g class="entity" data-entity="Cloudflare" data-source-line="28" data-uid="ent0014" id="entity_Cloudflare"><rect fill="#F1F1F1" height="46.2969" rx="2.5" ry="2.5" style="stroke:#181818;stroke-width:0.5;" width="147.2354" x="345.17" y="232.5969"/><rect fill="#F1F1F1" height="10" style="stroke:#181818;stroke-width:0.5;" width="15" x="472.4054" y="237.5969"/><rect fill="#F1F1F1" height="2" style="stroke:#181818;stroke-width:0.5;" width="4" x="470.4054" y="239.5969"/><rect fill="#F1F1F1" height="2" style="stroke:#181818;stroke-width:0.5;" width="4" x="470.4054" y="243.5969"/><text fill="#000000" font-family="sans-serif" font-size="14" lengthAdjust="spacing" textLength="107.2354" x="360.17" y="265.592">Cloudflare CDN</text></g><!--entity User--><g class="entity" data-entity="User" data-source-line="3" data-uid="ent0002" id="entity_User"><ellipse cx="585.79" cy="560.1869" fill="#F1F1F1" rx="8" ry="8" style="stroke:#181818;stroke-width:0.5;"/><path d="M585.79,568.1869 L585.79,595.1869 M572.79,576.1869 L598.79,576.1869 M585.79,595.1869 L572.79,610.1869 M585.79,595.1869 L598.79,610.1869" fill="none" style="stroke:#181818;stroke-width:0.5;"/><text fill="#000000" font-family="sans-serif" font-size="14" lengthAdjust="spacing" textLength="105.54" x="533.02" y="624.682">Website Visitor</text></g><!--link GitHubRepo to GitHubActions--><g class="link" data-entity-1="GitHubRepo" data-entity-2="GitHubActions" data-source-line="32" data-uid="lnk15" id="link_GitHubRepo_GitHubActions"><path d="M163.79,126.4069 C163.79,153.5969 163.79,197.5869 163.79,226.4969" fill="none" id="GitHubRepo-to-GitHubActions" style="stroke:#181818;stroke-width:1;"/><polygon fill="#181818" points="163.79,232.4969,167.79,223.4969,163.79,227.4969,159.79,223.4969,163.79,232.4969" style="stroke:#181818;stroke-width:1;"/><text fill="#000000" font-family="sans-serif" font-size="13" lengthAdjust="spacing" textLength="85.8965" x="164.79" y="172.6638">Push triggers</text></g><!--link GitHubActions to GCPServiceAccount--><g class="link" data-entity-1="GitHubActions" data-entity-2="GCPServiceAccount" data-source-line="33" data-uid="lnk16" id="link_GitHubActions_GCPServiceAccount"><path d="M72.75,279.3369 C58.13,286.9869 44.85,297.2169 35.79,310.8969 C6,355.8369 62.2138,398.7743 108.2438,425.1443" fill="none" id="GitHubActions-to-GCPServiceAccount" style="stroke:#181818;stroke-width:1;"/><polygon fill="#181818" points="113.45,428.1269,107.6291,420.1823,109.1115,425.6414,103.6524,427.1238,113.45,428.1269" style="stroke:#181818;stroke-width:1;"/><text fill="#000000" font-family="sans-serif" font-size="13" lengthAdjust="spacing" textLength="183.1997" x="36.79" y="323.9638">Authenticate via credentials</text></g><!--link GCPServiceAccount to GCPIAM--><g class="link" data-entity-1="GCPServiceAccount" data-entity-2="GCPIAM" data-source-line="34" data-uid="lnk17" id="link_GCPServiceAccount_GCPIAM"><path d="M120.69,475.1769 C104.76,487.9269 91.68,504.6869 100.79,521.6869 C111.09,540.8969 124.3787,552.5384 142.7387,563.1784" fill="none" id="GCPServiceAccount-to-GCPIAM" style="stroke:#181818;stroke-width:1;"/><polygon fill="#181818" points="147.93,566.1869,142.1487,558.2134,143.6039,563.6798,138.1375,565.135,147.93,566.1869" style="stroke:#181818;stroke-width:1;"/><text fill="#000000" font-family="sans-serif" font-size="13" lengthAdjust="spacing" textLength="122.6812" x="101.79" y="517.7538">Assigned IAM roles</text></g><!--link GCPIAM to GCPServiceAccount--><g class="link" data-entity-1="GCPIAM" data-entity-2="GCPServiceAccount" data-source-line="40" data-uid="lnk21" id="link_GCPIAM_GCPServiceAccount"><path d="M218.28,566.2869 C228.84,548.8969 238.84,524.5369 228.79,504.6869 C222.71,492.6869 217.2894,486.2725 206.3994,478.4325" fill="none" id="GCPIAM-to-GCPServiceAccount" style="stroke:#181818;stroke-width:1;"/><polygon fill="#181818" points="201.53,474.9269,206.497,483.4315,205.5878,477.8482,211.1711,476.939,201.53,474.9269" style="stroke:#181818;stroke-width:1;"/><text fill="#000000" font-family="sans-serif" font-size="13" lengthAdjust="spacing" textLength="125.6201" x="234.79" y="517.7538">Grants permissions</text></g><!--link GitHubActions to GCPBucket--><g class="link" data-entity-1="GitHubActions" data-entity-2="GCPBucket" data-source-line="35" data-uid="lnk18" id="link_GitHubActions_GCPBucket"><path d="M203.25,279.3069 C227.19,293.9169 257.67,314.2069 281.79,335.8969 C315.19,365.9169 343.7767,402.8531 361.0767,426.8031" fill="none" id="GitHubActions-to-GCPBucket" style="stroke:#181818;stroke-width:1;"/><polygon fill="#181818" points="364.59,431.6669,362.5626,422.029,361.6622,427.6137,356.0775,426.7134,364.59,431.6669" style="stroke:#181818;stroke-width:1;"/><text fill="#000000" font-family="sans-serif" font-size="13" lengthAdjust="spacing" textLength="112.9883" x="271.79" y="323.9638">Upload static site</text></g><!--link Registrar to Cloudflare--><g class="link" data-entity-1="Registrar" data-entity-2="Cloudflare" data-source-line="37" data-uid="lnk19" id="link_Registrar_Cloudflare"><path d="M449.32,129.8169 C442.56,157.5069 432.5241,198.5483 425.7341,226.3383" fill="none" id="Registrar-to-Cloudflare" style="stroke:#181818;stroke-width:1;"/><polygon fill="#181818" points="424.31,232.1669,430.3319,224.3735,425.4968,227.3098,422.5605,222.4747,424.31,232.1669" style="stroke:#181818;stroke-width:1;"/><text fill="#000000" font-family="sans-serif" font-size="13" lengthAdjust="spacing" textLength="159.4912" x="442.79" y="172.6638">DNS (CNAME, A records)</text></g><!--link Cloudflare to GCPBucket--><g class="link" data-entity-1="Cloudflare" data-entity-2="GCPBucket" data-source-line="38" data-uid="lnk20" id="link_Cloudflare_GCPBucket"><path d="M414.01,279.3569 C405.85,317.8969 390.652,389.7568 383.052,425.6768" fill="none" id="Cloudflare-to-GCPBucket" style="stroke:#181818;stroke-width:1;"/><polygon fill="#181818" points="381.81,431.5469,387.5864,423.5698,382.845,426.6552,379.7596,421.9138,381.81,431.5469" style="stroke:#181818;stroke-width:1;"/><text fill="#000000" font-family="sans-serif" font-size="13" lengthAdjust="spacing" textLength="157.3457" x="407.79" y="323.9638">Reverse proxy / redirect</text></g><!--link GCPBucket to User--><g class="link" data-entity-1="GCPBucket" data-entity-2="User" data-source-line="42" data-uid="lnk22" id="link_GCPBucket_User"><path d="M389.53,471.5169 C399.83,486.8369 416.07,508.0169 434.79,521.6869 C463.78,542.8669 476.97,537.1269 509.79,551.6869 C517.31,555.0269 519.7565,556.0896 527.4565,559.7696" fill="none" id="GCPBucket-to-User" style="stroke:#181818;stroke-width:1;"/><polygon fill="#181818" points="532.87,562.3569,526.4745,554.867,528.3587,560.2008,523.0249,562.085,532.87,562.3569" style="stroke:#181818;stroke-width:1;"/><text fill="#000000" font-family="sans-serif" font-size="13" lengthAdjust="spacing" textLength="137.7886" x="435.79" y="517.7538">Serves static content</text></g><!--link Cloudflare to User--><g class="link" data-entity-1="Cloudflare" data-entity-2="User" data-source-line="43" data-uid="lnk23" id="link_Cloudflare_User"><path d="M492.67,264.5469 C522.7,271.6969 554.75,285.2669 573.79,310.8969 C626.5,381.8469 611.3627,487.5484 597.6627,545.3984" fill="none" id="Cloudflare-to-User" style="stroke:#181818;stroke-width:1;"/><polygon fill="#181818" points="596.28,551.2369,602.2463,543.4009,597.4322,546.3714,594.4617,541.5573,596.28,551.2369" style="stroke:#181818;stroke-width:1;"/><text fill="#000000" font-family="sans-serif" font-size="13" lengthAdjust="spacing" textLength="226.4717" x="610.79" y="456.1038">Delivers cached/optimized content</text></g><!--SRC=[TLFBRjj03BplLn2wD07g-fv30LSAt1ni63RId3UxjCr6MWgxAwTkaNylLm_BZ_OaQCGPaZDYf5WYRAAEPE05NmD5X0BhaeyLkWZiO9wlu40QvXI_DwymCv7O1QMqYUmX6qW_I1xiCz01dWDwfJw9q05Bhj5F0bbKZYr2TW9XeSsU76RmHm5e7sahcf3rZTPOSojvR3KxD87g8sddJzEyW9fgB4MZr-wAEa73LSqkBP5TZWulxD-s9R-VwGvRjT9fOtG7ykoI2OEse2lFFz74smRoROF-G0QbY-76nKuyN_LmZzxIdcOBM7E9OI08eAHiRBeH3_Ikj-dSgAlOlZNc3KzzkpTXV7HB5SiDQ6SXBvRzGakCx-84FDf1_6oqWYjDJaBOKOXUUxXpPBuq-hxLFy6NfBpancvBxJ6rQIj7g1jZZQLkhTvJ7TGOAamcNo-pW0TODM4FqTDkXtue7hwszTVs2cVMnBqCGqQB9Uc_DHvj0dGf4ZU4NYQb8DmGQEVGjg7u5Cg_ctRU2k5P3aLR25qGAGMbHijIzPab3sq6T_bojdZy33FmQDZRSA_EQguRhELOV42eFVywmbGubeGNbUg7_fyDSwzT321dLf5irLxiA9nOwKYbC34n32iOTZ7zybSZzRM5t5gQ1unSBjefrv4g-Ys6zRo_]--></g></svg>